<?xml version="1.0" encoding="UTF-8"?>
<svg width="50px" height="41px" viewBox="0 0 50 41" version="1.1" xmlns="http://www.w3.org/2000/svg" xmlns:xlink="http://www.w3.org/1999/xlink">
    <!-- Generator: Sketch 52.5 (67469) - http://www.bohemiancoding.com/sketch -->
    <title>iconfont-xiangji</title>
    <desc>Created with Sketch.</desc>
    <g id="4_发布" stroke="none" stroke-width="1" fill="none" fill-rule="evenodd">
        <g id="4_15-选中图片" transform="translate(-71.000000, -256.000000)" fill="#FF4E68">
            <g id="拍摄" transform="translate(6.000000, 186.000000)">
                <g id="iconfont-xiangji" transform="translate(65.000000, 70.000000)">
                    <path d="M36.9659076,5.19933987 L36.9659076,4.72686496 C36.9659076,2.11615721 35.4693484,0 32.9310068,0 L17.0692675,0 C14.5306516,0 13.0343668,2.11615721 13.0343668,4.72686496 L13.0343668,5.19933987 L2.87275441,5.19933987 C1.28621377,5.19933987 1.0658141e-14,6.52204392 1.0658141e-14,8.15359521 L1.0658141e-14,37.0705548 C1.0658141e-14,38.7020356 1.28621377,40.0247396 2.87275441,40.0247396 L47.1275199,40.0247396 C48.7140606,40.0247396 50,38.7020356 50,37.0705548 L50,8.15359521 C50,6.52204392 48.7140606,5.19933987 47.1275199,5.19933987 L36.9659076,5.19933987 Z M25.0000509,34.1030677 C18.8121236,34.1030677 14.0311736,29.1864215 14.0311736,22.8227633 C14.0311736,16.4593418 18.8121236,11.5426956 25.0000509,11.5426956 C31.1881507,11.5426956 35.9691008,16.4593418 35.9691008,22.8227633 C35.9691008,29.1864215 31.1881507,34.1030677 25.0000509,34.1030677 L25.0000509,34.1030677 Z M16.9888165,22.8227598 C16.9888165,18.2727334 20.5754825,14.5843126 25.0000455,14.5843126 C29.4245474,14.5843126 33.0114579,18.2727334 33.0114579,22.8227598 C33.0114579,27.3727862 29.4245474,31.0615213 25.0000455,31.0615213 C20.5754825,31.0615213 16.9888165,27.3727862 16.9888165,22.8227598 Z M7.8125,15.763168 C6.51808262,15.763168 5.46875,14.7045564 5.46875,13.3986928 C5.46875,12.0928292 6.51808262,11.0342176 7.8125,11.0342176 C9.10691738,11.0342176 10.15625,12.0928292 10.15625,13.3986928 C10.15625,14.7045564 9.10691738,15.763168 7.8125,15.763168 Z" id="iconfont-xiangji-2"></path>
                </g>
            </g>
        </g>
    </g>
</svg>